# xmcd
#
# Track frame offsets: 
#        150
#        22568
#        44149
#        65032
#        88203
#        110330
#        131242
#        152515
#        173189
#        194334
#        215491
#
# Disc length: 3090 seconds
#
# Revision: 0
# Processed by: cddbd v1.5.2PL0 Copyright (c) Steve Scherf et al.
# Submitted via: ExactAudioCopy v0.95b4
#
DISCID=9b0c100b
DTITLE=Armik - Guitarrista
DYEAR=2007
DGENRE=Instrumental
TTITLE0=Guitarrista
TTITLE1=Felipe's Charm
TTITLE2=Fire Within
TTITLE3=Besos De Amor
TTITLE4=Fantasia De Guitarra
TTITLE5=August Moon
TTITLE6=Maui Sunsets
TTITLE7=Road To Hana
TTITLE8=My Sunshine
TTITLE9=Torremolinos
TTITLE10=Noche De Guitarra
EXTD=
EXTT0=
EXTT1=
EXTT2=
EXTT3=
EXTT4=
EXTT5=
EXTT6=
EXTT7=
EXTT8=
EXTT9=
EXTT10=
PLAYORDER=
